<?xml version="1.0" standalone="no"?>
<!DOCTYPE svg PUBLIC "-//W3C//DTD SVG 20010904//EN"
 "http://www.w3.org/TR/2001/REC-SVG-20010904/DTD/svg10.dtd">
<svg version="1.0" xmlns="http://www.w3.org/2000/svg"
 width="225.000000pt" height="225.000000pt" viewBox="0 0 225.000000 225.000000"
 preserveAspectRatio="xMidYMid meet">

<g transform="translate(0.000000,225.000000) scale(0.100000,-0.100000)"
fill="#000000" stroke="none">
<path d="M1348 1911 c-13 -18 -29 -20 -182 -23 -152 -3 -169 -5 -182 -22 -12
-17 -14 -134 -14 -740 0 -397 4 -726 8 -732 21 -32 52 -34 569 -34 453 0 521
2 541 16 l22 15 0 734 0 734 -22 15 c-18 13 -52 16 -164 16 -133 0 -142 1
-147 20 -5 19 -14 20 -210 20 -192 0 -207 -1 -219 -19z m100 -58 c5 -17 -26
-29 -40 -15 -6 6 -7 15 -3 22 9 14 37 9 43 -7z m272 -3 c0 -11 -6 -20 -14 -20
-18 0 -29 16 -21 30 11 18 35 11 35 -10z m-372 -70 c12 -19 23 -20 218 -20
198 0 206 1 211 20 5 19 12 20 127 18 l121 -3 0 -670 0 -670 -480 0 -480 0 -3
673 -2 672 138 0 c126 0 138 -2 150 -20z"/>
<path d="M1150 1495 l0 -125 120 0 120 0 0 125 0 125 -120 0 -120 0 0 -125z
m200 5 l0 -80 -80 0 -80 0 0 80 0 80 80 0 80 0 0 -80z"/>
<path d="M1460 1550 c0 -19 7 -20 235 -20 228 0 235 1 235 20 0 19 -7 20 -235
20 -228 0 -235 -1 -235 -20z"/>
<path d="M1460 1460 c0 -19 7 -20 205 -20 198 0 205 1 205 20 0 19 -7 20 -205
20 -198 0 -205 -1 -205 -20z"/>
<path d="M1150 1115 l0 -125 120 0 120 0 0 125 0 125 -120 0 -120 0 0 -125z
m200 -5 l0 -80 -80 0 -80 0 0 80 0 80 80 0 80 0 0 -80z"/>
<path d="M1462 1218 c3 -23 3 -23 226 -26 l222 -2 0 25 0 25 -226 0 -225 0 3
-22z"/>
<path d="M1460 1125 l0 -25 180 0 180 0 0 25 0 25 -180 0 -180 0 0 -25z"/>
<path d="M1467 1053 c-4 -3 -7 -15 -7 -25 0 -17 13 -18 215 -18 l215 0 0 25 0
25 -208 0 c-115 0 -212 -3 -215 -7z"/>
<path d="M1150 730 l0 -120 120 0 120 0 0 120 0 120 -120 0 -120 0 0 -120z
m200 0 l0 -80 -80 0 -80 0 0 80 0 80 80 0 80 0 0 -80z"/>
<path d="M1460 790 c0 -19 7 -20 190 -20 183 0 190 1 190 20 0 19 -7 20 -190
20 -183 0 -190 -1 -190 -20z"/>
<path d="M1460 700 c0 -19 7 -20 125 -20 118 0 125 1 125 20 0 19 -7 20 -125
20 -118 0 -125 -1 -125 -20z"/>
<path d="M158 1789 c-17 -9 -18 -44 -18 -502 0 -370 3 -496 12 -505 9 -9 105
-12 370 -12 l358 0 0 55 0 55 -315 0 -315 0 0 405 0 405 315 0 315 0 0 55 0
55 -352 0 c-221 0 -360 -4 -370 -11z"/>
<path d="M290 1221 l0 -301 295 0 295 0 0 100 c0 55 -1 100 -2 100 -2 0 -25
-7 -52 -15 -93 -28 -164 -13 -233 49 -39 36 -46 50 -63 118 -22 91 -38 123
-76 162 -34 33 -98 72 -136 81 l-28 7 0 -301z"/>
<path d="M720 630 l0 -90 80 0 80 0 0 90 0 90 -80 0 -80 0 0 -90z"/>
<path d="M450 470 c0 -19 7 -20 215 -20 208 0 215 1 215 20 0 19 -7 20 -215
20 -208 0 -215 -1 -215 -20z"/>
</g>
</svg>
