<?xml version="1.0" standalone="no"?>
<!DOCTYPE svg PUBLIC "-//W3C//DTD SVG 20010904//EN"
 "http://www.w3.org/TR/2001/REC-SVG-20010904/DTD/svg10.dtd">
<svg version="1.0" xmlns="http://www.w3.org/2000/svg"
 width="200.000000pt" height="200.000000pt" viewBox="0 0 200.000000 200.000000"
 preserveAspectRatio="xMidYMid meet">

<g transform="translate(0.000000,200.000000) scale(0.100000,-0.100000)"
fill="#000000" stroke="none">
<path d="M835 1786 c-178 -41 -320 -120 -432 -239 -364 -385 -247 -1010 232
-1242 165 -80 151 -78 688 -82 l477 -4 0 443 c0 504 -4 540 -81 693 -100 201
-295 360 -514 420 -83 23 -292 29 -370 11z m-47 -623 l2 -233 238 -2 237 -3 0
-25 0 -25 -265 0 -265 0 -3 250 c-1 137 0 256 3 263 3 7 15 12 27 10 l23 -3 3
-232z m462 122 c7 -8 9 -23 6 -32 -16 -41 -183 -283 -199 -289 -12 -4 -38 7
-73 30 -29 20 -55 36 -57 36 -2 0 -18 -20 -36 -45 -23 -32 -39 -45 -56 -45
-32 0 -42 33 -19 68 35 55 86 112 100 112 9 0 35 -13 58 -30 24 -16 48 -30 53
-32 6 -2 47 52 92 120 82 124 103 141 131 107z m-522 -677 c3 -13 -3 -16 -24
-15 -43 3 -42 -26 1 -51 27 -17 35 -28 35 -50 0 -38 -17 -52 -62 -52 -28 0
-38 4 -38 16 0 10 8 15 23 14 39 -4 47 0 47 18 -1 9 -15 26 -33 37 -59 37 -42
111 23 103 14 -2 26 -10 28 -20z m141 -76 c36 -98 35 -92 15 -92 -9 0 -18 9
-21 20 -4 15 -14 20 -38 20 -24 0 -34 -5 -38 -20 -4 -17 -37 -30 -37 -15 0 19
74 185 80 178 4 -4 21 -46 39 -91z m381 88 c19 -12 6 -24 -27 -25 -37 0 -40
-20 -6 -41 54 -34 67 -68 37 -98 -16 -17 -79 -22 -88 -8 -9 15 9 27 38 27 42
0 43 21 2 46 -20 12 -39 32 -42 45 -12 46 44 81 86 54z m-310 -75 l0 -75 40 0
c29 0 40 -4 40 -15 0 -12 -13 -15 -55 -15 l-55 0 0 90 c0 73 3 90 15 90 12 0
15 -15 15 -75z m210 65 c0 -5 -18 -10 -40 -10 -36 0 -40 -2 -40 -25 0 -20 5
-25 25 -25 14 0 25 -4 25 -10 0 -5 -11 -10 -25 -10 -21 0 -25 -5 -25 -29 0
-27 3 -30 37 -33 62 -5 53 -28 -11 -28 l-56 0 0 90 0 90 55 0 c30 0 55 -4 55
-10z"/>
<path d="M812 531 c-10 -28 -9 -31 9 -31 20 0 25 24 10 48 -6 10 -11 6 -19
-17z"/>
</g>
</svg>
