<?xml version="1.0" standalone="no"?>
<!DOCTYPE svg PUBLIC "-//W3C//DTD SVG 20010904//EN"
 "http://www.w3.org/TR/2001/REC-SVG-20010904/DTD/svg10.dtd">
<svg version="1.0" xmlns="http://www.w3.org/2000/svg"
 width="225.000000pt" height="225.000000pt" viewBox="0 0 225.000000 225.000000"
 preserveAspectRatio="xMidYMid meet">

<g transform="translate(0.000000,225.000000) scale(0.100000,-0.100000)"
fill="#000000" stroke="none">
<path d="M81 2102 c-19 -9 -44 -30 -55 -45 -21 -28 -21 -38 -24 -728 -2 -462
1 -713 8 -739 6 -22 25 -51 45 -69 l36 -31 499 0 500 0 0 -150 0 -150 -255 0
-255 0 0 -30 0 -30 545 0 545 0 0 30 0 30 -255 0 -255 0 0 150 0 149 504 3
505 3 31 30 c16 16 35 46 40 67 7 24 10 287 8 735 l-3 698 -24 34 c-46 64 9
61 -1098 61 -940 0 -1010 -1 -1042 -18z m2080 -71 c18 -22 19 -49 19 -731 l0
-709 -26 -20 c-27 -21 -30 -21 -1029 -21 -999 0 -1002 0 -1029 21 l-26 20 0
705 c0 480 3 712 11 725 6 11 20 24 32 29 12 5 459 8 1025 7 l1004 -2 19 -24z"/>
<path d="M791 1234 c-35 -30 -49 -81 -32 -122 12 -28 9 -31 -75 -113 -47 -46
-93 -83 -103 -82 -9 1 -28 5 -43 9 -38 9 -70 -1 -100 -31 -71 -71 -22 -185 79
-185 76 0 129 72 103 142 l-11 33 92 87 c75 72 95 86 110 78 26 -15 76 -12
109 5 30 15 30 15 162 -81 121 -87 133 -99 134 -127 1 -18 2 -42 3 -55 0 -13
14 -37 30 -53 60 -60 171 -26 187 57 4 20 2 46 -4 59 -11 23 -5 30 90 112 70
62 107 87 122 85 106 -16 104 -16 141 21 29 29 35 42 35 77 0 57 -50 110 -104
110 -80 0 -124 -52 -113 -133 l6 -43 -101 -89 c-99 -87 -101 -88 -133 -77 -43
16 -76 15 -103 -4 -13 -9 -29 -14 -35 -11 -7 3 -70 46 -140 97 l-127 92 0 49
c0 61 -11 84 -50 104 -44 23 -94 19 -129 -11z"/>
</g>
</svg>
